<svg width="238" height="53" viewBox="0 0 238 53" fill="none" xmlns="http://www.w3.org/2000/svg">
<g filter="url(#filter0_f_14_2)">
<path d="M20 47C28.8366 47 36 40.2843 36 32C36 23.7157 28.8366 17 20 17C11.1634 17 4 23.7157 4 32C4 40.2843 11.1634 47 20 47Z" fill="white" fill-opacity="0.46"/>
</g>
<g filter="url(#filter1_f_14_2)">
<path d="M38.7423 16.205C42.0954 16.205 44.8137 13.4867 44.8137 10.1335C44.8137 6.78038 42.0954 4.0621 38.7423 4.0621C35.3891 4.0621 32.6708 6.78038 32.6708 10.1335C32.6708 13.4867 35.3891 16.205 38.7423 16.205Z" fill="#606060"/>
</g>
<path d="M20.1863 45.5715C27.8789 45.5715 34.1149 39.4953 34.1149 32C34.1149 24.5047 27.8789 18.4286 20.1863 18.4286C12.4938 18.4286 6.25775 24.5047 6.25775 32C6.25775 39.4953 12.4938 45.5715 20.1863 45.5715Z" fill="#3E3E3E"/>
<path d="M38.8929 16.1429C42.1474 16.1429 44.7857 13.4246 44.7857 10.0714C44.7857 6.71827 42.1474 4 38.8929 4C35.6383 4 33 6.71827 33 10.0714C33 13.4246 35.6383 16.1429 38.8929 16.1429Z" fill="#3E3E3E"/>
<path d="M53.128 30.688C53.128 31.968 53.432 32.976 54.04 33.712C54.648 34.432 55.488 34.792 56.56 34.792C57.024 34.792 57.416 34.776 57.736 34.744C58.072 34.696 58.344 34.648 58.552 34.6V27.4C58.296 27.224 57.952 27.064 57.52 26.92C57.104 26.76 56.656 26.68 56.176 26.68C55.12 26.68 54.344 27.04 53.848 27.76C53.368 28.48 53.128 29.456 53.128 30.688ZM61.456 36.616C60.88 36.792 60.152 36.952 59.272 37.096C58.408 37.24 57.496 37.312 56.536 37.312C55.544 37.312 54.656 37.16 53.872 36.856C53.088 36.552 52.416 36.12 51.856 35.56C51.312 34.984 50.888 34.296 50.584 33.496C50.296 32.68 50.152 31.768 50.152 30.76C50.152 29.768 50.272 28.872 50.512 28.072C50.768 27.256 51.136 26.56 51.616 25.984C52.096 25.408 52.68 24.968 53.368 24.664C54.056 24.344 54.848 24.184 55.744 24.184C56.352 24.184 56.888 24.256 57.352 24.4C57.816 24.544 58.216 24.704 58.552 24.88V18.856L61.456 18.376V36.616ZM76.4969 30.712C76.4969 31.704 76.3529 32.608 76.0649 33.424C75.7769 34.24 75.3689 34.936 74.8409 35.512C74.3129 36.088 73.6729 36.536 72.9209 36.856C72.1849 37.176 71.3689 37.336 70.4729 37.336C69.5769 37.336 68.7609 37.176 68.0249 36.856C67.2889 36.536 66.6569 36.088 66.1289 35.512C65.6009 34.936 65.1849 34.24 64.8809 33.424C64.5929 32.608 64.4489 31.704 64.4489 30.712C64.4489 29.72 64.5929 28.824 64.8809 28.024C65.1849 27.208 65.6009 26.512 66.1289 25.936C66.6729 25.36 67.3129 24.92 68.0489 24.616C68.7849 24.296 69.5929 24.136 70.4729 24.136C71.3529 24.136 72.1609 24.296 72.8969 24.616C73.6489 24.92 74.2889 25.36 74.8169 25.936C75.3449 26.512 75.7529 27.208 76.0409 28.024C76.3449 28.824 76.4969 29.72 76.4969 30.712ZM73.5209 30.712C73.5209 29.464 73.2489 28.48 72.7049 27.76C72.1769 27.024 71.4329 26.656 70.4729 26.656C69.5129 26.656 68.7609 27.024 68.2169 27.76C67.6889 28.48 67.4249 29.464 67.4249 30.712C67.4249 31.976 67.6889 32.976 68.2169 33.712C68.7609 34.448 69.5129 34.816 70.4729 34.816C71.4329 34.816 72.1769 34.448 72.7049 33.712C73.2489 32.976 73.5209 31.976 73.5209 30.712ZM78.7926 30.736C78.7926 29.808 78.9366 28.944 79.2246 28.144C79.5126 27.328 79.9206 26.624 80.4486 26.032C80.9926 25.44 81.6486 24.976 82.4166 24.64C83.1846 24.304 84.0486 24.136 85.0086 24.136C86.1926 24.136 87.3126 24.352 88.3686 24.784L87.7446 27.16C87.4086 27.016 87.0246 26.896 86.5926 26.8C86.1766 26.704 85.7286 26.656 85.2486 26.656C84.1126 26.656 83.2486 27.016 82.6566 27.736C82.0646 28.44 81.7686 29.44 81.7686 30.736C81.7686 31.984 82.0486 32.976 82.6086 33.712C83.1686 34.432 84.1126 34.792 85.4406 34.792C85.9366 34.792 86.4246 34.744 86.9046 34.648C87.3846 34.552 87.8006 34.432 88.1526 34.288L88.5606 36.688C88.2406 36.848 87.7526 36.992 87.0966 37.12C86.4566 37.248 85.7926 37.312 85.1046 37.312C84.0326 37.312 83.0966 37.152 82.2966 36.832C81.5126 36.496 80.8566 36.04 80.3286 35.464C79.8166 34.872 79.4326 34.176 79.1766 33.376C78.9206 32.56 78.7926 31.68 78.7926 30.736ZM93.7369 37H90.8329V24.448H93.7369V37ZM94.0489 20.776C94.0489 21.32 93.8729 21.752 93.5209 22.072C93.1689 22.392 92.7529 22.552 92.2729 22.552C91.7769 22.552 91.3529 22.392 91.0009 22.072C90.6489 21.752 90.4729 21.32 90.4729 20.776C90.4729 20.216 90.6489 19.776 91.0009 19.456C91.3529 19.136 91.7769 18.976 92.2729 18.976C92.7529 18.976 93.1689 19.136 93.5209 19.456C93.8729 19.776 94.0489 20.216 94.0489 20.776ZM97.5858 37V20.368H108.098V22.936H100.61V27.184H107.258V29.752H100.61V37H97.5858ZM116.818 27.736C117.538 26.536 118.242 25.32 118.93 24.088C119.618 22.856 120.242 21.616 120.802 20.368H124.162C123.266 22.064 122.33 23.752 121.354 25.432C120.394 27.096 119.362 28.776 118.258 30.472V37H115.234V30.52C114.13 28.808 113.09 27.112 112.114 25.432C111.138 23.752 110.202 22.064 109.306 20.368H112.858C113.418 21.616 114.034 22.856 114.706 24.088C115.378 25.32 116.082 26.536 116.818 27.736Z" fill="#FFF628"/>
<path d="M63.24 48.41C63.24 47.87 63.1167 47.45 62.87 47.15C62.63 46.85 62.24 46.7 61.7 46.7C61.5867 46.7 61.4667 46.7067 61.34 46.72C61.22 46.7267 61.1 46.7467 60.98 46.78V49.77C61.0867 49.8433 61.2267 49.9133 61.4 49.98C61.58 50.04 61.77 50.07 61.97 50.07C62.41 50.07 62.73 49.92 62.93 49.62C63.1367 49.32 63.24 48.9167 63.24 48.41ZM64.48 48.39C64.48 48.79 64.4267 49.1567 64.32 49.49C64.22 49.8233 64.0733 50.11 63.88 50.35C63.6867 50.59 63.4433 50.7767 63.15 50.91C62.8633 51.0433 62.5367 51.11 62.17 51.11C61.9233 51.11 61.6967 51.08 61.49 51.02C61.2833 50.96 61.1133 50.8933 60.98 50.82V52.85H59.77V45.94C60.0167 45.8733 60.32 45.81 60.68 45.75C61.04 45.69 61.42 45.66 61.82 45.66C62.2333 45.66 62.6033 45.7233 62.93 45.85C63.2567 45.9767 63.5333 46.16 63.76 46.4C63.9933 46.6333 64.17 46.92 64.29 47.26C64.4167 47.5933 64.48 47.97 64.48 48.39ZM70.457 48.38C70.457 48.7933 70.397 49.17 70.277 49.51C70.157 49.85 69.987 50.14 69.767 50.38C69.547 50.62 69.2804 50.8067 68.967 50.94C68.6604 51.0733 68.3204 51.14 67.947 51.14C67.5737 51.14 67.2337 51.0733 66.927 50.94C66.6204 50.8067 66.357 50.62 66.137 50.38C65.917 50.14 65.7437 49.85 65.617 49.51C65.497 49.17 65.437 48.7933 65.437 48.38C65.437 47.9667 65.497 47.5933 65.617 47.26C65.7437 46.92 65.917 46.63 66.137 46.39C66.3637 46.15 66.6304 45.9667 66.937 45.84C67.2437 45.7067 67.5804 45.64 67.947 45.64C68.3137 45.64 68.6504 45.7067 68.957 45.84C69.2704 45.9667 69.537 46.15 69.757 46.39C69.977 46.63 70.147 46.92 70.267 47.26C70.3937 47.5933 70.457 47.9667 70.457 48.38ZM69.217 48.38C69.217 47.86 69.1037 47.45 68.877 47.15C68.657 46.8433 68.347 46.69 67.947 46.69C67.547 46.69 67.2337 46.8433 67.007 47.15C66.787 47.45 66.677 47.86 66.677 48.38C66.677 48.9067 66.787 49.3233 67.007 49.63C67.2337 49.9367 67.547 50.09 67.947 50.09C68.347 50.09 68.657 49.9367 68.877 49.63C69.1037 49.3233 69.217 48.9067 69.217 48.38ZM74.7162 47.71C74.5628 48.2967 74.3962 48.87 74.2162 49.43C74.0428 49.9833 73.8695 50.5067 73.6962 51H72.7062C72.5728 50.6933 72.4328 50.3433 72.2862 49.95C72.1395 49.5567 71.9928 49.1367 71.8462 48.69C71.6995 48.2433 71.5528 47.7733 71.4062 47.28C71.2595 46.7867 71.1162 46.2833 70.9762 45.77H72.2562C72.3162 46.05 72.3862 46.3533 72.4662 46.68C72.5462 47 72.6295 47.33 72.7162 47.67C72.8028 48.0033 72.8928 48.33 72.9862 48.65C73.0795 48.97 73.1728 49.2633 73.2662 49.53C73.3662 49.2233 73.4628 48.9067 73.5562 48.58C73.6562 48.2533 73.7495 47.9267 73.8362 47.6C73.9228 47.2733 74.0028 46.9567 74.0762 46.65C74.1562 46.3367 74.2262 46.0433 74.2862 45.77H75.2162C75.2762 46.0433 75.3428 46.3367 75.4162 46.65C75.4895 46.9567 75.5662 47.2733 75.6462 47.6C75.7328 47.9267 75.8228 48.2533 75.9162 48.58C76.0162 48.9067 76.1162 49.2233 76.2162 49.53C76.3028 49.2633 76.3928 48.97 76.4862 48.65C76.5795 48.33 76.6695 48.0033 76.7562 47.67C76.8495 47.33 76.9362 47 77.0162 46.68C77.0962 46.3533 77.1662 46.05 77.2262 45.77H78.4762C78.3362 46.2833 78.1928 46.7867 78.0462 47.28C77.8995 47.7733 77.7528 48.2433 77.6062 48.69C77.4595 49.1367 77.3128 49.5567 77.1662 49.95C77.0195 50.3433 76.8762 50.6933 76.7362 51H75.7562C75.5828 50.5067 75.4028 49.9833 75.2162 49.43C75.0362 48.87 74.8695 48.2967 74.7162 47.71ZM79.1089 48.41C79.1089 47.95 79.1756 47.5467 79.3089 47.2C79.4489 46.8533 79.6322 46.5667 79.8589 46.34C80.0856 46.1067 80.3456 45.9333 80.6389 45.82C80.9322 45.7 81.2322 45.64 81.5389 45.64C82.2589 45.64 82.8189 45.8633 83.2189 46.31C83.6256 46.7567 83.8289 47.4233 83.8289 48.31C83.8289 48.3767 83.8256 48.4533 83.8189 48.54C83.8189 48.62 83.8156 48.6933 83.8089 48.76H80.3589C80.3922 49.18 80.5389 49.5067 80.7989 49.74C81.0656 49.9667 81.4489 50.08 81.9489 50.08C82.2422 50.08 82.5089 50.0533 82.7489 50C82.9956 49.9467 83.1889 49.89 83.3289 49.83L83.4889 50.82C83.4222 50.8533 83.3289 50.89 83.2089 50.93C83.0956 50.9633 82.9622 50.9933 82.8089 51.02C82.6622 51.0533 82.5022 51.08 82.3289 51.1C82.1556 51.12 81.9789 51.13 81.7989 51.13C81.3389 51.13 80.9389 51.0633 80.5989 50.93C80.2589 50.79 79.9789 50.6 79.7589 50.36C79.5389 50.1133 79.3756 49.8267 79.2689 49.5C79.1622 49.1667 79.1089 48.8033 79.1089 48.41ZM82.6189 47.87C82.6189 47.7033 82.5956 47.5467 82.5489 47.4C82.5022 47.2467 82.4322 47.1167 82.3389 47.01C82.2522 46.8967 82.1422 46.81 82.0089 46.75C81.8822 46.6833 81.7289 46.65 81.5489 46.65C81.3622 46.65 81.1989 46.6867 81.0589 46.76C80.9189 46.8267 80.7989 46.9167 80.6989 47.03C80.6056 47.1433 80.5322 47.2733 80.4789 47.42C80.4256 47.5667 80.3889 47.7167 80.3689 47.87H82.6189ZM88.0918 46.86C87.9918 46.8267 87.8518 46.7933 87.6718 46.76C87.4985 46.72 87.2951 46.7 87.0618 46.7C86.9285 46.7 86.7851 46.7133 86.6318 46.74C86.4851 46.7667 86.3818 46.79 86.3218 46.81V51H85.1118V46.02C85.3451 45.9333 85.6351 45.8533 85.9818 45.78C86.3351 45.7 86.7251 45.66 87.1518 45.66C87.2318 45.66 87.3251 45.6667 87.4318 45.68C87.5385 45.6867 87.6451 45.7 87.7518 45.72C87.8585 45.7333 87.9618 45.7533 88.0618 45.78C88.1618 45.8 88.2418 45.82 88.3018 45.84L88.0918 46.86ZM88.855 48.41C88.855 47.95 88.9217 47.5467 89.055 47.2C89.195 46.8533 89.3783 46.5667 89.605 46.34C89.8317 46.1067 90.0917 45.9333 90.385 45.82C90.6783 45.7 90.9783 45.64 91.285 45.64C92.005 45.64 92.565 45.8633 92.965 46.31C93.3717 46.7567 93.575 47.4233 93.575 48.31C93.575 48.3767 93.5717 48.4533 93.565 48.54C93.565 48.62 93.5617 48.6933 93.555 48.76H90.105C90.1383 49.18 90.285 49.5067 90.545 49.74C90.8117 49.9667 91.195 50.08 91.695 50.08C91.9883 50.08 92.255 50.0533 92.495 50C92.7417 49.9467 92.935 49.89 93.075 49.83L93.235 50.82C93.1683 50.8533 93.075 50.89 92.955 50.93C92.8417 50.9633 92.7083 50.9933 92.555 51.02C92.4083 51.0533 92.2483 51.08 92.075 51.1C91.9017 51.12 91.725 51.13 91.545 51.13C91.085 51.13 90.685 51.0633 90.345 50.93C90.005 50.79 89.725 50.6 89.505 50.36C89.285 50.1133 89.1217 49.8267 89.015 49.5C88.9083 49.1667 88.855 48.8033 88.855 48.41ZM92.365 47.87C92.365 47.7033 92.3417 47.5467 92.295 47.4C92.2483 47.2467 92.1783 47.1167 92.085 47.01C91.9983 46.8967 91.8883 46.81 91.755 46.75C91.6283 46.6833 91.475 46.65 91.295 46.65C91.1083 46.65 90.945 46.6867 90.805 46.76C90.665 46.8267 90.545 46.9167 90.445 47.03C90.3517 47.1433 90.2783 47.2733 90.225 47.42C90.1717 47.5667 90.135 47.7167 90.115 47.87H92.365ZM95.8079 48.37C95.8079 48.9033 95.9346 49.3233 96.1879 49.63C96.4412 49.93 96.7912 50.08 97.2379 50.08C97.4312 50.08 97.5946 50.0733 97.7279 50.06C97.8679 50.04 97.9812 50.02 98.0679 50V47C97.9612 46.9267 97.8179 46.86 97.6379 46.8C97.4646 46.7333 97.2779 46.7 97.0779 46.7C96.6379 46.7 96.3146 46.85 96.1079 47.15C95.9079 47.45 95.8079 47.8567 95.8079 48.37ZM99.2779 50.84C99.0379 50.9133 98.7346 50.98 98.3679 51.04C98.0079 51.1 97.6279 51.13 97.2279 51.13C96.8146 51.13 96.4446 51.0667 96.1179 50.94C95.7912 50.8133 95.5112 50.6333 95.2779 50.4C95.0512 50.16 94.8746 49.8733 94.7479 49.54C94.6279 49.2 94.5679 48.82 94.5679 48.4C94.5679 47.9867 94.6179 47.6133 94.7179 47.28C94.8246 46.94 94.9779 46.65 95.1779 46.41C95.3779 46.17 95.6212 45.9867 95.9079 45.86C96.1946 45.7267 96.5246 45.66 96.8979 45.66C97.1512 45.66 97.3746 45.69 97.5679 45.75C97.7612 45.81 97.9279 45.8767 98.0679 45.95V43.44L99.2779 43.24V50.84ZM106.619 48.37C106.619 47.8567 106.516 47.45 106.309 47.15C106.109 46.85 105.789 46.7 105.349 46.7C105.149 46.7 104.959 46.73 104.779 46.79C104.606 46.85 104.466 46.9167 104.359 46.99V50C104.446 50.02 104.556 50.04 104.689 50.06C104.829 50.0733 104.996 50.08 105.189 50.08C105.636 50.08 105.986 49.93 106.239 49.63C106.492 49.3233 106.619 48.9033 106.619 48.37ZM107.859 48.39C107.859 48.81 107.796 49.19 107.669 49.53C107.549 49.8633 107.372 50.15 107.139 50.39C106.912 50.63 106.636 50.8133 106.309 50.94C105.982 51.0667 105.612 51.13 105.199 51.13C104.799 51.13 104.416 51.1 104.049 51.04C103.689 50.98 103.389 50.9133 103.149 50.84V43.44L104.359 43.24V45.95C104.499 45.8767 104.669 45.81 104.869 45.75C105.076 45.69 105.302 45.66 105.549 45.66C105.916 45.66 106.242 45.7267 106.529 45.86C106.822 45.9867 107.066 46.17 107.259 46.41C107.452 46.65 107.599 46.94 107.699 47.28C107.806 47.6133 107.859 47.9833 107.859 48.39ZM113.269 45.77C112.729 47.7567 112.102 49.5567 111.389 51.17C111.255 51.47 111.119 51.7267 110.979 51.94C110.839 52.1533 110.682 52.33 110.509 52.47C110.335 52.61 110.142 52.71 109.929 52.77C109.715 52.8367 109.469 52.87 109.189 52.87C109.002 52.87 108.815 52.85 108.629 52.81C108.449 52.77 108.312 52.7267 108.219 52.68L108.439 51.71C108.679 51.8033 108.915 51.85 109.149 51.85C109.462 51.85 109.705 51.7733 109.879 51.62C110.059 51.4733 110.215 51.2433 110.349 50.93C109.969 50.1967 109.602 49.3967 109.249 48.53C108.902 47.6633 108.592 46.7433 108.319 45.77H109.609C109.675 46.05 109.755 46.3533 109.849 46.68C109.949 47.0067 110.055 47.34 110.169 47.68C110.282 48.0133 110.402 48.3467 110.529 48.68C110.655 49.0133 110.782 49.3233 110.909 49.61C111.122 49.0167 111.322 48.3867 111.509 47.72C111.695 47.0467 111.865 46.3967 112.019 45.77H113.269ZM120.958 49.91V51H116.578V44.07H117.838V49.91H120.958ZM126.492 48.38C126.492 48.7933 126.432 49.17 126.312 49.51C126.192 49.85 126.022 50.14 125.802 50.38C125.582 50.62 125.316 50.8067 125.002 50.94C124.696 51.0733 124.356 51.14 123.982 51.14C123.609 51.14 123.269 51.0733 122.962 50.94C122.656 50.8067 122.392 50.62 122.172 50.38C121.952 50.14 121.779 49.85 121.652 49.51C121.532 49.17 121.472 48.7933 121.472 48.38C121.472 47.9667 121.532 47.5933 121.652 47.26C121.779 46.92 121.952 46.63 122.172 46.39C122.399 46.15 122.666 45.9667 122.972 45.84C123.279 45.7067 123.616 45.64 123.982 45.64C124.349 45.64 124.686 45.7067 124.992 45.84C125.306 45.9667 125.572 46.15 125.792 46.39C126.012 46.63 126.182 46.92 126.302 47.26C126.429 47.5933 126.492 47.9667 126.492 48.38ZM125.252 48.38C125.252 47.86 125.139 47.45 124.912 47.15C124.692 46.8433 124.382 46.69 123.982 46.69C123.582 46.69 123.269 46.8433 123.042 47.15C122.822 47.45 122.712 47.86 122.712 48.38C122.712 48.9067 122.822 49.3233 123.042 49.63C123.269 49.9367 123.582 50.09 123.982 50.09C124.382 50.09 124.692 49.9367 124.912 49.63C125.139 49.3233 125.252 48.9067 125.252 48.38ZM129.579 50.15C129.952 50.15 130.235 50.13 130.429 50.09V48.75C130.362 48.73 130.265 48.71 130.139 48.69C130.012 48.67 129.872 48.66 129.719 48.66C129.585 48.66 129.449 48.67 129.309 48.69C129.175 48.71 129.052 48.7467 128.939 48.8C128.832 48.8533 128.745 48.93 128.679 49.03C128.612 49.1233 128.579 49.2433 128.579 49.39C128.579 49.6767 128.669 49.8767 128.849 49.99C129.029 50.0967 129.272 50.15 129.579 50.15ZM129.479 45.64C129.879 45.64 130.215 45.69 130.489 45.79C130.762 45.89 130.979 46.03 131.139 46.21C131.305 46.39 131.422 46.61 131.489 46.87C131.562 47.1233 131.599 47.4033 131.599 47.71V50.88C131.412 50.92 131.129 50.9667 130.749 51.02C130.375 51.08 129.952 51.11 129.479 51.11C129.165 51.11 128.879 51.08 128.619 51.02C128.359 50.96 128.135 50.8633 127.949 50.73C127.769 50.5967 127.625 50.4233 127.519 50.21C127.419 49.9967 127.369 49.7333 127.369 49.42C127.369 49.12 127.425 48.8667 127.539 48.66C127.659 48.4533 127.819 48.2867 128.019 48.16C128.219 48.0267 128.449 47.9333 128.709 47.88C128.975 47.82 129.252 47.79 129.539 47.79C129.672 47.79 129.812 47.8 129.959 47.82C130.105 47.8333 130.262 47.86 130.429 47.9V47.7C130.429 47.56 130.412 47.4267 130.379 47.3C130.345 47.1733 130.285 47.0633 130.199 46.97C130.119 46.87 130.009 46.7933 129.869 46.74C129.735 46.6867 129.565 46.66 129.359 46.66C129.079 46.66 128.822 46.68 128.589 46.72C128.355 46.76 128.165 46.8067 128.019 46.86L127.869 45.88C128.022 45.8267 128.245 45.7733 128.539 45.72C128.832 45.6667 129.145 45.64 129.479 45.64ZM134.031 48.37C134.031 48.9033 134.157 49.3233 134.411 49.63C134.664 49.93 135.014 50.08 135.461 50.08C135.654 50.08 135.817 50.0733 135.951 50.06C136.091 50.04 136.204 50.02 136.291 50V47C136.184 46.9267 136.041 46.86 135.861 46.8C135.687 46.7333 135.501 46.7 135.301 46.7C134.861 46.7 134.537 46.85 134.331 47.15C134.131 47.45 134.031 47.8567 134.031 48.37ZM137.501 50.84C137.261 50.9133 136.957 50.98 136.591 51.04C136.231 51.1 135.851 51.13 135.451 51.13C135.037 51.13 134.667 51.0667 134.341 50.94C134.014 50.8133 133.734 50.6333 133.501 50.4C133.274 50.16 133.097 49.8733 132.971 49.54C132.851 49.2 132.791 48.82 132.791 48.4C132.791 47.9867 132.841 47.6133 132.941 47.28C133.047 46.94 133.201 46.65 133.401 46.41C133.601 46.17 133.844 45.9867 134.131 45.86C134.417 45.7267 134.747 45.66 135.121 45.66C135.374 45.66 135.597 45.69 135.791 45.75C135.984 45.81 136.151 45.8767 136.291 45.95V43.44L137.501 43.24V50.84ZM140.778 50.06C141.231 50.06 141.561 49.9833 141.768 49.83C141.974 49.6767 142.078 49.46 142.078 49.18C142.078 49.0133 142.041 48.87 141.968 48.75C141.901 48.63 141.801 48.5233 141.668 48.43C141.541 48.33 141.384 48.24 141.198 48.16C141.011 48.0733 140.798 47.99 140.558 47.91C140.318 47.8233 140.084 47.73 139.858 47.63C139.638 47.5233 139.441 47.3933 139.268 47.24C139.101 47.0867 138.964 46.9033 138.858 46.69C138.758 46.4767 138.708 46.22 138.708 45.92C138.708 45.2933 138.924 44.8033 139.358 44.45C139.791 44.09 140.381 43.91 141.128 43.91C141.561 43.91 141.944 43.96 142.278 44.06C142.618 44.1533 142.884 44.2567 143.078 44.37L142.688 45.39C142.461 45.2633 142.211 45.1667 141.938 45.1C141.671 45.0333 141.394 45 141.108 45C140.768 45 140.501 45.07 140.308 45.21C140.121 45.35 140.028 45.5467 140.028 45.8C140.028 45.9533 140.058 46.0867 140.118 46.2C140.184 46.3067 140.274 46.4033 140.388 46.49C140.508 46.5767 140.644 46.6567 140.798 46.73C140.958 46.8033 141.131 46.8733 141.318 46.94C141.644 47.06 141.934 47.1833 142.188 47.31C142.448 47.43 142.664 47.5767 142.838 47.75C143.018 47.9167 143.154 48.1167 143.248 48.35C143.341 48.5767 143.388 48.8533 143.388 49.18C143.388 49.8067 143.164 50.2933 142.718 50.64C142.278 50.98 141.631 51.15 140.778 51.15C140.491 51.15 140.228 51.13 139.988 51.09C139.754 51.0567 139.544 51.0133 139.358 50.96C139.178 50.9067 139.021 50.8533 138.888 50.8C138.754 50.74 138.648 50.6867 138.568 50.64L138.938 49.61C139.118 49.71 139.361 49.81 139.668 49.91C139.974 50.01 140.344 50.06 140.778 50.06ZM144.378 44.39L145.588 44.19V45.77H147.448V46.78H145.588V48.91C145.588 49.33 145.655 49.63 145.788 49.81C145.921 49.99 146.148 50.08 146.468 50.08C146.688 50.08 146.881 50.0567 147.048 50.01C147.221 49.9633 147.358 49.92 147.458 49.88L147.658 50.84C147.518 50.9 147.335 50.96 147.108 51.02C146.881 51.0867 146.615 51.12 146.308 51.12C145.935 51.12 145.621 51.07 145.368 50.97C145.121 50.87 144.925 50.7267 144.778 50.54C144.631 50.3467 144.528 50.1167 144.468 49.85C144.408 49.5767 144.378 49.2667 144.378 48.92V44.39ZM150.458 50.15C150.831 50.15 151.114 50.13 151.308 50.09V48.75C151.241 48.73 151.144 48.71 151.018 48.69C150.891 48.67 150.751 48.66 150.598 48.66C150.464 48.66 150.328 48.67 150.188 48.69C150.054 48.71 149.931 48.7467 149.818 48.8C149.711 48.8533 149.624 48.93 149.558 49.03C149.491 49.1233 149.458 49.2433 149.458 49.39C149.458 49.6767 149.548 49.8767 149.728 49.99C149.908 50.0967 150.151 50.15 150.458 50.15ZM150.358 45.64C150.758 45.64 151.094 45.69 151.368 45.79C151.641 45.89 151.858 46.03 152.018 46.21C152.184 46.39 152.301 46.61 152.368 46.87C152.441 47.1233 152.478 47.4033 152.478 47.71V50.88C152.291 50.92 152.008 50.9667 151.628 51.02C151.254 51.08 150.831 51.11 150.358 51.11C150.044 51.11 149.758 51.08 149.498 51.02C149.238 50.96 149.014 50.8633 148.828 50.73C148.648 50.5967 148.504 50.4233 148.398 50.21C148.298 49.9967 148.248 49.7333 148.248 49.42C148.248 49.12 148.304 48.8667 148.418 48.66C148.538 48.4533 148.698 48.2867 148.898 48.16C149.098 48.0267 149.328 47.9333 149.588 47.88C149.854 47.82 150.131 47.79 150.418 47.79C150.551 47.79 150.691 47.8 150.838 47.82C150.984 47.8333 151.141 47.86 151.308 47.9V47.7C151.308 47.56 151.291 47.4267 151.258 47.3C151.224 47.1733 151.164 47.0633 151.078 46.97C150.998 46.87 150.888 46.7933 150.748 46.74C150.614 46.6867 150.444 46.66 150.238 46.66C149.958 46.66 149.701 46.68 149.468 46.72C149.234 46.76 149.044 46.8067 148.898 46.86L148.748 45.88C148.901 45.8267 149.124 45.7733 149.418 45.72C149.711 45.6667 150.024 45.64 150.358 45.64ZM156.939 46.86C156.839 46.8267 156.699 46.7933 156.519 46.76C156.346 46.72 156.143 46.7 155.909 46.7C155.776 46.7 155.633 46.7133 155.479 46.74C155.333 46.7667 155.229 46.79 155.169 46.81V51H153.959V46.02C154.193 45.9333 154.483 45.8533 154.829 45.78C155.183 45.7 155.573 45.66 155.999 45.66C156.079 45.66 156.173 45.6667 156.279 45.68C156.386 45.6867 156.493 45.7 156.599 45.72C156.706 45.7333 156.809 45.7533 156.909 45.78C157.009 45.8 157.089 45.82 157.149 45.84L156.939 46.86Z" fill="#6E6464"/>
<defs>
<filter id="filter0_f_14_2" x="0" y="13" width="40" height="38" filterUnits="userSpaceOnUse" color-interpolation-filters="sRGB">
<feFlood flood-opacity="0" result="BackgroundImageFix"/>
<feBlend mode="normal" in="SourceGraphic" in2="BackgroundImageFix" result="shape"/>
<feGaussianBlur stdDeviation="2" result="effect1_foregroundBlur_14_2"/>
</filter>
<filter id="filter1_f_14_2" x="28.6708" y="0.0621033" width="20.1429" height="20.1429" filterUnits="userSpaceOnUse" color-interpolation-filters="sRGB">
<feFlood flood-opacity="0" result="BackgroundImageFix"/>
<feBlend mode="normal" in="SourceGraphic" in2="BackgroundImageFix" result="shape"/>
<feGaussianBlur stdDeviation="2" result="effect1_foregroundBlur_14_2"/>
</filter>
</defs>
</svg>
